<!-- icon666.com - MILLIONS vector ICONS FREE --><svg viewBox="0 0 32 32" xmlns="http://www.w3.org/2000/svg"><g id="Layer_51" data-name="Layer 51"><path d="m16 7.5a8.5 8.5 0 1 0 8.5 8.5 8.506 8.506 0 0 0 -8.5-8.5zm0 15.5a1 1 0 0 1 -1-1v-12a1 1 0 0 1 1-1 7 7 0 0 1 0 14z" fill="#000000" style="fill: rgb(235, 235, 235);"></path><path d="m16 2a14 14 0 1 0 14 14 14.015 14.015 0 0 0 -14-14zm0 24.5a10.5 10.5 0 1 1 10.5-10.5 10.512 10.512 0 0 1 -10.5 10.5z" fill="#000000" style="fill: rgb(235, 235, 235);"></path></g></svg>